<?xml version="1.0" encoding="UTF-8" standalone="no"?>
<svg
   xmlns:dc="http://purl.org/dc/elements/1.1/"
   xmlns:cc="http://creativecommons.org/ns#"
   xmlns:rdf="http://www.w3.org/1999/02/22-rdf-syntax-ns#"
   xmlns:svg="http://www.w3.org/2000/svg"
   xmlns="http://www.w3.org/2000/svg"
   xmlns:sodipodi="http://sodipodi.sourceforge.net/DTD/sodipodi-0.dtd"
   xmlns:inkscape="http://www.inkscape.org/namespaces/inkscape"
   width="170.5mm"
   height="237.85201mm"
   viewBox="0 0 170.5 237.85201"
   version="1.1"
   id="svg8"
   sodipodi:docname="myLogo-withShadow.svg"
   inkscape:version="1.0.2-2 (e86c870879, 2021-01-15)">
  <defs
     id="defs2">
    <rect
       x="33.261905"
       y="193.52381"
       width="103.56548"
       height="34.017857"
       id="rect920" />
    <rect
       x="66.282845"
       y="282.23663"
       width="104.76965"
       height="48.108517"
       id="rect1833" />
    <rect
       x="55.057522"
       y="207.93568"
       width="43.832203"
       height="65.748306"
       id="rect1023" />
    <rect
       x="56.457932"
       y="224.46394"
       width="27.464701"
       height="47.08189"
       id="rect1013" />
    <rect
       x="55.057522"
       y="207.93568"
       width="43.832203"
       height="65.748306"
       id="rect1023-5" />
    <rect
       x="55.057522"
       y="207.93568"
       width="43.832203"
       height="65.748306"
       id="rect1042" />
    <rect
       x="55.057522"
       y="207.93568"
       width="43.832203"
       height="65.748306"
       id="rect1023-5-6" />
    <rect
       x="55.057522"
       y="207.93568"
       width="43.832203"
       height="65.748306"
       id="rect1078" />
    <rect
       x="55.057522"
       y="207.93568"
       width="43.832203"
       height="65.748306"
       id="rect1023-5-9" />
    <rect
       x="55.057522"
       y="207.93568"
       width="43.832203"
       height="65.748306"
       id="rect1709" />
    <rect
       x="55.057522"
       y="207.93568"
       width="43.832203"
       height="65.748306"
       id="rect1023-8" />
    <rect
       x="55.057522"
       y="207.93568"
       width="43.832203"
       height="65.748306"
       id="rect1712" />
    <rect
       x="55.057522"
       y="207.93568"
       width="43.832203"
       height="65.748306"
       id="rect1023-5-6-3" />
    <rect
       x="55.057522"
       y="207.93568"
       width="43.832203"
       height="65.748306"
       id="rect1715" />
    <rect
       x="55.057522"
       y="207.93568"
       width="43.832203"
       height="65.748306"
       id="rect1023-5-6-7" />
    <rect
       x="55.057522"
       y="207.93568"
       width="43.832203"
       height="65.748306"
       id="rect1806" />
    <rect
       x="55.057522"
       y="207.93568"
       width="43.832203"
       height="65.748306"
       id="rect1023-5-7" />
    <rect
       x="55.057522"
       y="207.93568"
       width="43.832203"
       height="65.748306"
       id="rect1809" />
    <rect
       x="55.057522"
       y="207.93568"
       width="43.832203"
       height="65.748306"
       id="rect1023-2" />
    <rect
       x="55.057522"
       y="207.93568"
       width="43.832203"
       height="65.748306"
       id="rect1812" />
    <rect
       x="55.057522"
       y="207.93568"
       width="43.832203"
       height="65.748306"
       id="rect1023-5-6-72" />
    <rect
       x="55.057522"
       y="207.93568"
       width="43.832203"
       height="65.748306"
       id="rect1883" />
    <rect
       x="55.057522"
       y="207.93568"
       width="43.832203"
       height="65.748306"
       id="rect1023-5-1" />
    <rect
       x="55.057522"
       y="207.93568"
       width="43.832203"
       height="65.748306"
       id="rect1886" />
    <rect
       x="55.057522"
       y="207.93568"
       width="43.832203"
       height="65.748306"
       id="rect1023-4" />
    <rect
       x="55.057522"
       y="207.93568"
       width="43.832203"
       height="65.748306"
       id="rect1889" />
    <rect
       x="66.282845"
       y="282.23663"
       width="104.76965"
       height="48.108517"
       id="rect1833-9" />
    <rect
       x="66.282845"
       y="282.23663"
       width="104.76965"
       height="48.108517"
       id="rect1976" />
    <rect
       x="66.282845"
       y="282.23663"
       width="104.76965"
       height="48.108517"
       id="rect1833-9-5" />
    <rect
       x="66.282845"
       y="282.23663"
       width="104.76965"
       height="48.108517"
       id="rect2012" />
    <rect
       x="66.282845"
       y="282.23663"
       width="104.76965"
       height="48.108517"
       id="rect1833-9-5-0" />
    <rect
       x="66.282845"
       y="282.23663"
       width="104.76965"
       height="48.108517"
       id="rect2070" />
  </defs>
  <sodipodi:namedview
     id="base"
     pagecolor="#ffffff"
     bordercolor="#666666"
     borderopacity="1.0"
     inkscape:pageopacity="0.0"
     inkscape:pageshadow="2"
     inkscape:zoom="0.12374369"
     inkscape:cx="1463.399"
     inkscape:cy="787.41493"
     inkscape:document-units="mm"
     inkscape:current-layer="layer1"
     inkscape:document-rotation="0"
     showgrid="false"
     showguides="false"
     inkscape:guide-bbox="true"
     inkscape:window-width="1366"
     inkscape:window-height="705"
     inkscape:window-x="-8"
     inkscape:window-y="-8"
     inkscape:window-maximized="1"
     units="px">
    <sodipodi:guide
       position="-29.482142,134.47024"
       orientation="1,0"
       id="guide900" />
    <sodipodi:guide
       position="27.214286,135.98214"
       orientation="0,-1"
       id="guide902" />
    <sodipodi:guide
       position="52.384828,155.88169"
       orientation="1,0"
       id="guide904" />
    <sodipodi:guide
       position="-29.482141,298.13394"
       orientation="0.70710678,-0.70710678"
       id="guide906" />
    <sodipodi:guide
       position="57.074405,209.63108"
       orientation="0,-1"
       id="guide908" />
    <sodipodi:guide
       position="168.19941,107.63393"
       orientation="1,0"
       id="guide910" />
    <sodipodi:guide
       position="52.384828,37.330357"
       orientation="0,-1"
       id="guide1105" />
  </sodipodi:namedview>
  <metadata
     id="metadata5">
    <rdf:RDF>
      <cc:Work
         rdf:about="">
        <dc:format>image/svg+xml</dc:format>
        <dc:type
           rdf:resource="http://purl.org/dc/dcmitype/StillImage" />
        <dc:title />
      </cc:Work>
    </rdf:RDF>
  </metadata>
  <g
     inkscape:groupmode="layer"
     id="layer2"
     inkscape:label="Box"
     style="display:none">
    <rect
       style="display:inline;fill:none;fill-opacity:1;stroke:#000000;stroke-width:8;stroke-linecap:round;stroke-linejoin:round;stroke-miterlimit:4;stroke-dasharray:none;stroke-opacity:1"
       id="rect987-9"
       width="162.49986"
       height="229.85179"
       x="4.2859106"
       y="3.982765"
       rx="2.2578878" />
    <rect
       style="display:inline;fill:none;fill-opacity:1;stroke:#000000;stroke-width:8;stroke-linecap:round;stroke-linejoin:round;stroke-miterlimit:4;stroke-dasharray:none;stroke-opacity:1"
       id="rect987-2"
       width="162.49986"
       height="229.85179"
       x="3.7567439"
       y="3.982765"
       rx="2.2578878" />
  </g>
  <g
     inkscape:groupmode="layer"
     id="layer5"
     inkscape:label="Shadow"
     style="display:none">
    <path
       id="path1868"
       style="fill:#8a916f;stroke:#8a916f;stroke-width:1.01015;stroke-linecap:round;stroke-linejoin:round;stroke-miterlimit:4;stroke-dasharray:none;stroke-opacity:1"
       d="M 81.56234,141.6543 C 71.017557,140.38587 60.775865,136.72882 51.572925,131.48183 41.7066,124.96236 34.322803,115.09285 29.336593,104.47162 22.065547,88.4576 27.47595,60.10315 37.366188,44.989841 c 4.392559,-7.380388 -7.793952,3.723193 0,0 -0.145365,-5.917927 -6.629973,18.31402 -3.4559,30.141197 2.288618,11.188127 8.236754,25.238112 16.475029,34.376212 10.270218,10.80207 24.333995,22.35797 38.3461,29.87477 2.046099,1.16672 8.766232,3.02482 2.749729,2.67635 -3.308431,-0.0187 -6.624445,-0.0795 -9.918806,-0.40407 z"
       sodipodi:nodetypes="cccccccccc" />
    <path
       style="fill:#8a916f;stroke:#8a916f;stroke-width:1.42857;stroke-linecap:round;stroke-linejoin:round;stroke-miterlimit:4;stroke-dasharray:none;stroke-opacity:1"
       d="m 94.76641,164.38627 c -1.002851,-3.50172 -4.027898,-9.41764 -6.159651,-12.04609 l -1.839304,-2.26786 7.386849,-0.0339 c 4.06277,-0.0186 8.217026,-0.15995 9.231696,-0.31406 l 1.84486,-0.28019 -1.65587,1.76105 c -3.11645,3.31441 -5.610051,7.78127 -7.310462,13.09542 l -0.803492,2.51108 z"
       id="path1872" />
    <path
       style="fill:#8a916f;stroke:#8a916f;stroke-width:1.42857;stroke-linecap:round;stroke-linejoin:round;stroke-miterlimit:4;stroke-dasharray:none;stroke-opacity:1"
       d="m 53.043212,170.5249 c 0.641374,-5.13338 3.12016,-11.45147 5.646282,-14.39162 0.737608,-0.8585 2.184824,-2.10232 3.216032,-2.76404 1.774068,-1.13842 4.456455,-2.15083 4.796825,-1.81046 0.086,0.086 -0.61198,1.32603 -1.55099,2.7557 -2.769733,4.217 -4.10454,8.54203 -4.571795,14.81349 l -0.260487,3.49628 h -3.769082 -3.769082 z"
       id="path1884" />
    <path
       style="fill:#8a916f;stroke:#8a916f;stroke-width:1.31133;stroke-linecap:round;stroke-linejoin:round;stroke-miterlimit:4;stroke-dasharray:none;stroke-opacity:1"
       d="m 32.53341,162.56096 c 0.914538,-12.11645 4.611756,-22.33757 10.589138,-29.27414 0.143686,-0.16675 1.014766,0.32511 1.935738,1.09299 4.29804,3.58362 12.544413,8.24698 18.936133,10.70845 1.764875,0.67966 3.2556,1.27974 3.312719,1.33348 0.05712,0.0537 -0.915507,0.57476 -2.161396,1.15777 -1.245884,0.58303 -2.946081,1.52847 -3.778217,2.10099 l -1.512968,1.04096 -1.601637,-1.13872 c -4.556224,-3.23936 -9.372407,-4.0508 -12.976935,-2.18636 -4.121218,2.13169 -9.796418,9.6661 -12.467892,16.55241 -0.44465,1.14618 -0.460068,1.06828 -0.274683,-1.38783 z"
       id="path1928" />
    <path
       style="fill:#8a916f;stroke:#8a916f;stroke-width:0.714285;stroke-linecap:round;stroke-linejoin:round;stroke-miterlimit:4;stroke-dasharray:none;stroke-opacity:1"
       d="m 102.06183,171.89413 c 1.24644,-5.39575 3.32263,-10.48992 5.40555,-13.26316 1.3012,-1.73243 3.27369,-3.68682 4.69534,-4.65225 0.63257,-0.42957 1.18059,-0.75058 1.21781,-0.71336 0.0372,0.0372 -0.56233,1.31 -1.33234,2.82839 -1.63272,3.21962 -2.56178,5.45147 -2.9808,7.16073 -0.26177,1.06778 -0.53909,3.41358 -0.99906,8.45066 l -0.12511,1.37016 h -3.07713 -3.07712 z"
       id="path1944" />
  </g>
  <g
     inkscape:groupmode="layer"
     id="layer6"
     inkscape:label="Background"
     style="display:none">
    <path
       style="fill:#80ff80;stroke:#87de87;stroke-width:7.6358;stroke-linecap:round;stroke-linejoin:round;stroke-miterlimit:4;stroke-dasharray:none;stroke-opacity:1"
       d="M 120.80478,596.6477 V 178.44455 H 411.72871 702.65264 V 596.6477 1014.8509 H 411.72871 120.80478 Z m 322.24448,383.72524 15.14647,-4.4965 v -17.88842 c 0,-15.79515 -0.42023,-17.88845 -3.59108,-17.88845 -1.97511,0 -5.38437,1.23186 -7.57614,2.73745 -14.42445,9.90861 -42.63908,14.21036 -59.69244,9.10105 -9.01781,-2.70179 -19.20027,-12.53813 -21.14348,-20.4248 l -1.36894,-5.55584 h 47.69619 47.69619 v -15.79575 c 0,-28.15138 -9.61677,-47.4118 -28.47705,-57.03358 -12.46773,-6.36057 -33.79235,-8.96132 -50.81992,-6.19803 -37.91832,6.15352 -57.82366,27.85556 -59.69555,65.08378 -1.28506,25.55688 2.73127,37.60968 17.43093,52.30934 9.1627,9.16271 14.14074,12.35281 24.60293,15.76646 16.82875,5.49095 23.16134,6.24034 45.95178,5.43793 11.67277,-0.41097 24.38229,-2.34692 33.84011,-5.15464 z M 256.16522,938.1708 v -44.35515 l 7.57614,-1.60679 c 4.16688,-0.88372 15.98566,-1.49553 26.26397,-1.35956 l 18.68782,0.2472 v -21.23193 -21.23193 l -12.66628,1.01672 c -12.07782,0.9695 -31.71497,8.66931 -34.78715,13.64019 -2.57219,4.16189 -4.84685,1.86232 -5.45762,-5.51741 l -0.62704,-7.57615 -21.71828,-0.57342 -21.71828,-0.57342 v 66.73841 66.73842 h 22.22336 22.22336 z m 276.78179,-2.05996 V 889.6957 l 5.62566,-2.90913 c 16.60479,-8.58668 33.00773,-4.91678 36.64996,8.19983 1.18208,4.25696 2.15362,25.68612 2.15982,47.63855 l 0.0113,39.90103 h 22.34752 22.3475 l -0.62922,-52.02286 c -0.6048,-50.00215 -0.81531,-52.4008 -5.41969,-61.75261 -7.43091,-15.09277 -17.0622,-20.41227 -38.4936,-21.26064 -16.60281,-0.65724 -17.89364,-0.38414 -30.96217,6.5506 l -13.63706,7.23641 v -6.04552 -6.04552 H 510.72366 488.5003 v 66.67007 66.67007 h 22.22336 22.22335 z m 81.59075,-105.36982 c 8.63467,-3.93422 10.13046,-11.22067 6.23371,-30.36628 -9.58537,-47.09511 -29.80515,-81.501 -57.03577,-97.05194 l -10.62758,-6.06922 14.14503,-6.77881 c 20.62923,-9.8863 35.55711,-20.72724 51.68797,-37.5369 25.30422,-26.36908 37.61337,-48.84902 42.68486,-77.95457 4.07562,-23.39008 2.66986,-59.78573 -3.26907,-84.63682 -4.25412,-17.80111 -7.30589,-24.6055 -34.89813,-77.81059 -6.12597,-11.81249 -15.01331,-33.63178 -19.74963,-48.48732 -13.47901,-42.27714 -25.16775,-63.40726 -47.50515,-85.8767 -52.50464,-52.81502 -154.26581,-70.70576 -240.51907,-42.28591 -22.17164,7.3054 -57.79405,25.41748 -74.1943,37.72381 -30.5441,22.91952 -61.32078,69.06853 -73.04662,109.53197 -20.84477,71.93094 -3.20728,156.94738 46.38444,223.58276 8.09016,10.87059 15.69275,20.37247 16.89464,21.11528 1.37413,0.84925 -0.7918,5.29364 -5.83519,11.97356 -10.58764,14.02324 -21.24561,37.44842 -26.48774,58.21754 -7.65925,30.3456 -7.3666,112.77951 0.45225,127.38914 1.11579,2.08487 4.01484,4.59092 6.44233,5.56897 6.90689,2.78285 402.11794,2.5428 408.24302,-0.24797 z"
       id="path1959"
       transform="scale(0.26458333)" />
    <path
       style="fill:#87de87;stroke:#87de87;stroke-width:2.69966;stroke-linecap:round;stroke-linejoin:round;stroke-miterlimit:4;stroke-dasharray:none;stroke-opacity:1"
       d="m 364.2422,896.66367 c 2.10429,-14.95979 11.93423,-23.03571 28.03883,-23.03571 11.52666,0 17.91715,3.32126 22.05082,11.46025 1.65206,3.25281 2.47154,6.03148 2.78186,9.43261 l 0.43991,4.82142 h -26.8441 -26.84409 z"
       id="path1965"
       transform="scale(0.26458333)" />
  </g>
  <g
     inkscape:label="Character"
     inkscape:groupmode="layer"
     id="layer1"
     style="display:inline">
    <path
       id="path918-7"
       style="display:inline;fill:none;stroke:#000000;stroke-width:8;stroke-linecap:butt;stroke-linejoin:miter;stroke-miterlimit:4;stroke-dasharray:none;stroke-opacity:1"
       d="m 100.11796,177.12401 c -0.237187,-3.95703 0.52373,-7.93697 1.42879,-11.79186 1.33811,-5.17551 4.10689,-11.60167 8.85196,-14.72103 3.63723,-2.84169 7.80692,-3.82959 12.56567,-2.97744 5.13415,0.71692 9.99998,3.29455 13.05358,7.3948 4.8664,6.37577 6.84701,14.41603 7.53048,22.1884"
       sodipodi:nodetypes="cccccc" />
    <path
       id="path853"
       style="fill:none;stroke:#000000;stroke-width:8;stroke-linecap:butt;stroke-linejoin:miter;stroke-miterlimit:4;stroke-dasharray:none;stroke-opacity:1"
       d="M 43.105407,36.914661 C 61.638001,23.992046 84.88581,20.158127 106.64791,28.83216 c 12.13944,4.310015 21.18135,15.049606 24.64133,27.297373 2.11901,7.84177 5.23249,15.33394 9.47198,22.27163 6.74841,10.34299 8.55679,23.362527 6.42103,35.393217 -1.60099,8.78355 -7.92283,15.77164 -14.44389,21.44573 -9.54422,7.16075 -21.48777,10.15397 -33.269344,10.48266 C 87.31618,146.75732 75.04962,144.86328 63.827685,140.05676 55.040426,136.95843 46.982759,131.87367 41.100553,124.55938 26.551215,108.4983 19.039242,85.192543 25.034639,63.950643 27.737135,54.474792 35.273633,42.861337 43.105407,36.914661 Z"
       sodipodi:nodetypes="ccccccccccc" />
    <ellipse
       style="fill:#000000;fill-opacity:1;stroke:none;stroke-width:4.39543;stroke-linecap:round;stroke-linejoin:round;stroke-miterlimit:4;stroke-dasharray:none;stroke-opacity:1"
       id="path865"
       cx="83.426918"
       cy="22.648657"
       rx="14.883498"
       ry="19.282734"
       transform="matrix(0.87423866,0.4854964,-0.55014935,0.83506628,0,0)" />
    <ellipse
       style="fill:#000000;fill-opacity:1;stroke:none;stroke-width:5.73087;stroke-linecap:round;stroke-linejoin:round;stroke-miterlimit:4;stroke-dasharray:none;stroke-opacity:1"
       id="path865-4"
       cx="73.049416"
       cy="111.71335"
       rx="6.7538261"
       ry="12.196613"
       transform="matrix(0.81011936,-0.58626498,0.51777704,0.8555156,0,0)" />
    <ellipse
       style="fill:#000000;fill-opacity:1;stroke:#000000;stroke-width:4;stroke-linecap:round;stroke-linejoin:round;stroke-miterlimit:4;stroke-dasharray:none;stroke-opacity:1"
       id="path896"
       cx="116.75679"
       cy="106.91043"
       rx="2.9487014"
       ry="3.3266778" />
    <path
       style="fill:none;stroke:#000000;stroke-width:8;stroke-linecap:round;stroke-linejoin:miter;stroke-miterlimit:4;stroke-dasharray:none;stroke-opacity:1"
       d="M 44.304361,128.22918 C 26.344475,142.96709 32.860269,176.15855 32.860269,176.15855"
       id="path898"
       sodipodi:nodetypes="cc" />
    <path
       style="fill:none;stroke:#000000;stroke-width:8.25374;stroke-linecap:round;stroke-linejoin:miter;stroke-miterlimit:4;stroke-dasharray:none;stroke-opacity:1"
       d="M 33.04246,177.21688 H 143.54844"
       id="path916"
       sodipodi:nodetypes="cc" />
    <path
       id="path918"
       style="fill:none;stroke:#000000;stroke-width:8;stroke-linecap:butt;stroke-linejoin:miter;stroke-miterlimit:4;stroke-dasharray:none;stroke-opacity:1"
       d="m 49.573832,177.23435 c -0.237186,-3.95703 0.523723,-7.93697 1.428789,-11.79186 1.338099,-5.17551 4.106866,-11.60167 8.851936,-14.72103 3.637233,-2.84169 7.806921,-3.82959 12.565673,-2.97744 5.13415,0.71692 9.99998,3.29455 13.05358,7.3948 4.8664,6.37577 6.84701,14.41603 7.53048,22.1884"
       sodipodi:nodetypes="cccccc" />
    <text
       xml:space="preserve"
       id="text1011"
       style="font-weight:bold;font-size:10.5833px;line-height:1.25;font-family:sans-serif;-inkscape-font-specification:'sans-serif Bold';white-space:pre;shape-inside:url(#rect1013);" />
  </g>
  <g
     inkscape:groupmode="layer"
     id="layer7"
     inkscape:label="Name Shadow"
     style="display:none">
    <text
       xml:space="preserve"
       id="text1831-1"
       style="font-weight:bold;font-size:38.1px;line-height:1.25;font-family:sans-serif;-inkscape-font-specification:'sans-serif Bold';white-space:pre;shape-inside:url(#rect1833-9-5-0);display:inline;"
       x="32.611961"
       y="0"
       transform="matrix(1.657236,0,0,1.657236,-91.722183,-260.75258)"><tspan
         x="82.977125"
         y="316.99611"><tspan
           style="text-align:center;text-anchor:middle;fill:#ffffff;fill-opacity:1">ren</tspan></tspan></text>
  </g>
  <g
     inkscape:groupmode="layer"
     id="layer3"
     inkscape:label="Name"
     style="display:none">
    <g
       aria-label="ren"
       transform="matrix(6.090392,0,0,6.090392,-433.03036,-1016.7781)"
       id="text918"
       style="font-size:10.5833px;line-height:1.25;font-family:sans-serif;-inkscape-font-specification:sans-serif;white-space:pre;shape-inside:url(#rect920)">
      <path
         d="m 80.215775,199.14815 h -0.165364 q -0.118856,-0.0413 -0.382405,-0.062 -0.263549,-0.0207 -0.439248,-0.0207 -0.397907,0 -0.702797,0.0517 -0.30489,0.0517 -0.656289,0.1757 v 3.88605 h -1.860346 v -5.80324 h 1.860346 v 0.85266 q 0.614948,-0.5271 1.069699,-0.69763 0.454751,-0.1757 0.837155,-0.1757 0.09819,0 0.222208,0.005 0.124023,0.005 0.217041,0.0155 z"
         style="font-style:normal;font-variant:normal;font-weight:bold;font-stretch:normal;font-family:sans-serif;-inkscape-font-specification:'sans-serif Bold';text-align:center;text-anchor:middle"
         id="path924" />
      <path
         d="m 86.985366,200.62093 h -4.258125 q 0.04134,0.68212 0.516763,1.04386 0.480589,0.36173 1.410762,0.36173 0.589109,0 1.142045,-0.21187 0.552937,-0.21187 0.873329,-0.45475 h 0.206705 v 1.49344 q -0.63045,0.25322 -1.188554,0.3669 -0.558103,0.11369 -1.235062,0.11369 -1.746658,0 -2.676831,-0.78548 -0.930173,-0.78548 -0.930173,-2.23758 0,-1.4366 0.878497,-2.27376 0.883664,-0.84232 2.418449,-0.84232 1.41593,0 2.129062,0.7183 0.713133,0.71313 0.713133,2.05672 z m -1.850011,-1.09037 q -0.0155,-0.58394 -0.289387,-0.8785 -0.273884,-0.29455 -0.852658,-0.29455 -0.537433,0 -0.883664,0.27905 -0.346231,0.27905 -0.387572,0.894 z"
         style="font-style:normal;font-variant:normal;font-weight:bold;font-stretch:normal;font-family:sans-serif;-inkscape-font-specification:'sans-serif Bold';text-align:center;text-anchor:middle"
         id="path926" />
      <path
         d="m 94.127026,203.1789 h -1.870681 v -2.87837 q 0,-0.35139 -0.03617,-0.69763 -0.03617,-0.35139 -0.124023,-0.51676 -0.103352,-0.1912 -0.30489,-0.27905 -0.196369,-0.0878 -0.552936,-0.0878 -0.253213,0 -0.516762,0.0827 -0.258382,0.0827 -0.563272,0.26355 v 4.11343 h -1.860345 v -5.80324 h 1.860345 v 0.64078 q 0.496092,-0.38757 0.950844,-0.59427 0.459918,-0.20671 1.018022,-0.20671 0.940508,0 1.467606,0.54777 0.532266,0.54777 0.532266,1.63814 z"
         style="font-style:normal;font-variant:normal;font-weight:bold;font-stretch:normal;font-family:sans-serif;-inkscape-font-specification:'sans-serif Bold';text-align:center;text-anchor:middle"
         id="path928" />
    </g>
  </g>
</svg>
